<svg width="221" height="35" viewBox="0 0 221 35" fill="none" xmlns="http://www.w3.org/2000/svg">
<path d="M17.0773 8L31.8666 28.1923H2.28792L17.0773 8Z" fill="#808080"/>
<path d="M25.1136 8L39.903 28.1923H10.3243L25.1136 8Z" fill="white"/>
<path d="M52.25 29V5.72727H57.1705V15.3295H67.1591V5.72727H72.0682V29H67.1591V19.3864H57.1705V29H52.25ZM76.0341 29V11.5455H80.875V29H76.0341ZM78.4659 9.29545C77.7462 9.29545 77.1288 9.05682 76.6137 8.57954C76.1061 8.0947 75.8523 7.51515 75.8523 6.84091C75.8523 6.17424 76.1061 5.60227 76.6137 5.125C77.1288 4.64015 77.7462 4.39773 78.4659 4.39773C79.1856 4.39773 79.7993 4.64015 80.3068 5.125C80.822 5.60227 81.0796 6.17424 81.0796 6.84091C81.0796 7.51515 80.822 8.0947 80.3068 8.57954C79.7993 9.05682 79.1856 9.29545 78.4659 9.29545ZM89.1392 23.9773L89.1506 18.1705H89.8551L95.446 11.5455H101.003L93.4915 20.3182H92.3438L89.1392 23.9773ZM84.7529 29V5.72727H89.5938V29H84.7529ZM95.662 29L90.5256 21.3977L93.7529 17.9773L101.332 29H95.662ZM110.614 29.3409C108.818 29.3409 107.273 28.9773 105.977 28.25C104.689 27.5152 103.697 26.4773 103 25.1364C102.303 23.7879 101.955 22.1932 101.955 20.3523C101.955 18.5568 102.303 16.9811 103 15.625C103.697 14.2689 104.678 13.2121 105.943 12.4545C107.216 11.697 108.708 11.3182 110.42 11.3182C111.572 11.3182 112.644 11.5038 113.636 11.875C114.636 12.2386 115.508 12.7879 116.25 13.5227C117 14.2576 117.583 15.1818 118 16.2955C118.417 17.4015 118.625 18.697 118.625 20.1818V21.5114H103.886V18.5114H114.068C114.068 17.8144 113.917 17.197 113.614 16.6591C113.311 16.1212 112.89 15.7008 112.352 15.3977C111.822 15.0871 111.205 14.9318 110.5 14.9318C109.765 14.9318 109.114 15.1023 108.545 15.4432C107.985 15.7765 107.545 16.2273 107.227 16.7955C106.909 17.3561 106.746 17.9811 106.739 18.6705V21.5227C106.739 22.3864 106.898 23.1326 107.216 23.7614C107.542 24.3902 108 24.875 108.591 25.2159C109.182 25.5568 109.883 25.7273 110.693 25.7273C111.231 25.7273 111.724 25.6515 112.17 25.5C112.617 25.3485 113 25.1212 113.318 24.8182C113.636 24.5152 113.879 24.1439 114.045 23.7045L118.523 24C118.295 25.0758 117.83 26.0152 117.125 26.8182C116.428 27.6136 115.527 28.2348 114.42 28.6818C113.322 29.1212 112.053 29.3409 110.614 29.3409ZM121.875 29V5.72727H137.284V9.78409H126.795V15.3295H136.261V19.3864H126.795V29H121.875ZM140.503 29V11.5455H145.344V29H140.503ZM142.935 9.29545C142.215 9.29545 141.598 9.05682 141.082 8.57954C140.575 8.0947 140.321 7.51515 140.321 6.84091C140.321 6.17424 140.575 5.60227 141.082 5.125C141.598 4.64015 142.215 4.39773 142.935 4.39773C143.654 4.39773 144.268 4.64015 144.776 5.125C145.291 5.60227 145.548 6.17424 145.548 6.84091C145.548 7.51515 145.291 8.0947 144.776 8.57954C144.268 9.05682 143.654 9.29545 142.935 9.29545ZM154.063 18.9091V29H149.222V11.5455H153.835V14.625H154.04C154.426 13.6098 155.074 12.8068 155.983 12.2159C156.892 11.6174 157.994 11.3182 159.29 11.3182C160.502 11.3182 161.559 11.5833 162.46 12.1136C163.362 12.6439 164.063 13.4015 164.563 14.3864C165.063 15.3636 165.313 16.5303 165.313 17.8864V29H160.472V18.75C160.479 17.6818 160.206 16.8485 159.653 16.25C159.1 15.6439 158.339 15.3409 157.369 15.3409C156.718 15.3409 156.142 15.4811 155.642 15.7614C155.15 16.0417 154.763 16.4508 154.483 16.9886C154.21 17.5189 154.07 18.1591 154.063 18.9091ZM175.56 29.2841C174.234 29.2841 173.033 28.9432 171.957 28.2614C170.889 27.572 170.041 26.5606 169.412 25.2273C168.791 23.8864 168.48 22.2424 168.48 20.2955C168.48 18.2955 168.802 16.6326 169.446 15.3068C170.09 13.9735 170.946 12.9773 172.014 12.3182C173.09 11.6515 174.268 11.3182 175.548 11.3182C176.526 11.3182 177.34 11.4848 177.991 11.8182C178.651 12.1439 179.181 12.553 179.582 13.0455C179.991 13.5303 180.302 14.0076 180.514 14.4773H180.662V5.72727H185.492V29H180.719V26.2045H180.514C180.287 26.6894 179.965 27.1705 179.548 27.6477C179.139 28.1174 178.605 28.5076 177.946 28.8182C177.295 29.1288 176.499 29.2841 175.56 29.2841ZM177.094 25.4318C177.874 25.4318 178.533 25.2197 179.071 24.7955C179.616 24.3636 180.033 23.7614 180.321 22.9886C180.616 22.2159 180.764 21.3106 180.764 20.2727C180.764 19.2348 180.62 18.3333 180.332 17.5682C180.045 16.803 179.628 16.2121 179.082 15.7955C178.537 15.3788 177.874 15.1705 177.094 15.1705C176.298 15.1705 175.628 15.3864 175.082 15.8182C174.537 16.25 174.124 16.8485 173.844 17.6136C173.563 18.3788 173.423 19.2652 173.423 20.2727C173.423 21.2879 173.563 22.1856 173.844 22.9659C174.132 23.7386 174.545 24.3447 175.082 24.7841C175.628 25.2159 176.298 25.4318 177.094 25.4318ZM197.426 29.3409C195.631 29.3409 194.085 28.9773 192.79 28.25C191.502 27.5152 190.509 26.4773 189.813 25.1364C189.116 23.7879 188.767 22.1932 188.767 20.3523C188.767 18.5568 189.116 16.9811 189.813 15.625C190.509 14.2689 191.491 13.2121 192.756 12.4545C194.028 11.697 195.521 11.3182 197.233 11.3182C198.384 11.3182 199.456 11.5038 200.449 11.875C201.449 12.2386 202.32 12.7879 203.063 13.5227C203.813 14.2576 204.396 15.1818 204.813 16.2955C205.229 17.4015 205.438 18.697 205.438 20.1818V21.5114H190.699V18.5114H200.881C200.881 17.8144 200.729 17.197 200.426 16.6591C200.123 16.1212 199.703 15.7008 199.165 15.3977C198.634 15.0871 198.017 14.9318 197.313 14.9318C196.578 14.9318 195.926 15.1023 195.358 15.4432C194.797 15.7765 194.358 16.2273 194.04 16.7955C193.722 17.3561 193.559 17.9811 193.551 18.6705V21.5227C193.551 22.3864 193.71 23.1326 194.028 23.7614C194.354 24.3902 194.813 24.875 195.403 25.2159C195.994 25.5568 196.695 25.7273 197.506 25.7273C198.044 25.7273 198.536 25.6515 198.983 25.5C199.43 25.3485 199.813 25.1212 200.131 24.8182C200.449 24.5152 200.691 24.1439 200.858 23.7045L205.335 24C205.108 25.0758 204.642 26.0152 203.938 26.8182C203.241 27.6136 202.339 28.2348 201.233 28.6818C200.134 29.1212 198.866 29.3409 197.426 29.3409ZM208.597 29V11.5455H213.29V14.5909H213.472C213.79 13.5076 214.324 12.6894 215.074 12.1364C215.824 11.5758 216.688 11.2955 217.665 11.2955C217.907 11.2955 218.169 11.3106 218.449 11.3409C218.729 11.3712 218.975 11.4129 219.188 11.4659V15.7614C218.96 15.6932 218.646 15.6326 218.244 15.5795C217.843 15.5265 217.475 15.5 217.142 15.5C216.43 15.5 215.794 15.6553 215.233 15.9659C214.68 16.2689 214.241 16.6932 213.915 17.2386C213.597 17.7841 213.438 18.4129 213.438 19.125V29H208.597Z" fill="white"/>
</svg>
